
<svg id="svg" version="1.1" xmlns="http://www.w3.org/2000/svg" xmlns:xlink="http://www.w3.org/1999/xlink" width="400" height="400" viewBox="0, 0, 400,400"><g id="svgg"><path id="path0" d="M318.958 80.938 L 318.958 83.750 310.527 83.750 L 302.095 83.750 302.037 86.615 L 301.979 89.479 293.490 89.534 L 285.000 89.588 285.000 92.398 L 285.000 95.208 279.271 95.208 L 273.542 95.208 273.542 98.021 L 273.542 100.833 267.917 100.833 L 262.292 100.833 262.292 103.646 L 262.292 106.458 259.479 106.458 L 256.667 106.458 256.667 109.267 L 256.667 112.077 250.990 112.132 L 245.313 112.188 245.254 114.948 L 245.196 117.708 242.442 117.717 C 240.927 117.721,238.422 117.744,236.875 117.769 L 234.063 117.813 234.005 120.677 L 233.947 123.542 228.333 123.542 L 222.720 123.542 222.662 120.677 L 222.604 117.813 216.771 117.766 C 213.563 117.741,203.367 117.779,194.115 117.852 L 177.292 117.985 177.292 120.763 L 177.292 123.542 171.667 123.542 L 166.042 123.542 166.042 120.729 L 166.042 117.917 160.417 117.917 L 154.792 117.917 154.792 115.104 L 154.792 112.292 149.068 112.292 L 143.345 112.292 143.287 109.427 L 143.229 106.563 140.469 106.504 L 137.708 106.446 137.708 103.640 L 137.708 100.833 132.089 100.833 L 126.470 100.833 126.412 98.073 L 126.354 95.313 120.677 95.257 L 115.000 95.202 115.000 92.395 L 115.000 89.588 106.510 89.534 L 98.021 89.479 97.963 86.719 L 97.905 83.958 89.473 83.958 L 81.042 83.958 81.042 81.146 L 81.042 78.333 66.875 78.333 L 52.708 78.333 52.708 81.146 L 52.708 83.958 49.896 83.958 L 47.083 83.958 47.083 89.583 L 47.083 95.208 44.271 95.208 C 42.162 95.208,41.457 95.274,41.454 95.469 C 41.451 95.612,41.428 101.964,41.402 109.583 L 41.354 123.438 38.490 123.495 L 35.625 123.553 35.625 154.688 L 35.625 185.822 38.490 185.880 L 41.354 185.938 41.410 191.625 L 41.465 197.312 44.222 197.291 C 45.738 197.280,48.268 197.275,49.844 197.281 L 52.708 197.292 52.708 200.104 L 52.708 202.917 58.333 202.917 L 63.958 202.917 63.958 205.729 L 63.958 208.542 75.313 208.542 L 86.667 208.542 86.667 205.729 L 86.667 202.917 92.402 202.917 L 98.137 202.917 98.079 205.677 L 98.021 208.438 95.156 208.495 L 92.292 208.553 92.292 211.360 L 92.292 214.167 89.479 214.167 L 86.667 214.167 86.667 219.792 L 86.667 225.417 81.042 225.417 L 75.417 225.417 75.417 231.146 L 75.417 236.875 69.688 236.875 L 63.958 236.875 63.958 242.500 L 63.958 248.125 61.145 248.125 L 58.331 248.125 58.384 265.156 L 58.438 282.188 66.875 282.188 L 75.313 282.188 75.370 279.321 L 75.428 276.455 86.725 276.509 L 98.021 276.563 98.079 279.427 L 98.137 282.292 106.568 282.292 L 115.000 282.292 115.000 285.104 L 115.000 287.917 117.813 287.917 L 120.625 287.917 120.625 290.723 L 120.625 293.530 123.490 293.588 L 126.354 293.646 126.412 296.406 L 126.470 299.167 129.277 299.167 L 132.083 299.167 132.083 301.979 L 132.083 304.792 134.896 304.792 L 137.708 304.792 137.708 310.521 L 137.708 316.250 140.521 316.250 L 143.333 316.250 143.333 319.063 L 143.333 321.875 146.146 321.875 L 148.958 321.875 148.958 319.068 L 148.958 316.262 151.823 316.204 L 154.688 316.146 154.743 310.469 L 154.798 304.792 157.608 304.792 L 160.417 304.792 160.417 296.360 L 160.417 287.929 163.177 287.871 L 165.938 287.813 165.992 279.323 L 166.046 270.833 168.857 270.833 L 171.667 270.833 171.667 256.667 L 171.667 242.500 174.479 242.500 L 177.292 242.500 177.292 211.354 L 177.292 180.208 180.104 180.208 L 182.917 180.208 182.917 183.022 L 182.917 185.836 199.948 185.782 L 216.979 185.729 217.037 182.969 L 217.095 180.208 219.902 180.208 L 222.708 180.208 222.708 211.354 L 222.708 242.500 225.521 242.500 L 228.333 242.500 228.333 256.667 L 228.333 270.833 231.146 270.833 L 233.958 270.833 233.958 279.271 L 233.958 287.708 236.771 287.708 L 239.583 287.708 239.583 296.250 L 239.583 304.792 242.396 304.792 L 245.208 304.792 245.219 307.656 C 245.225 309.232,245.220 311.760,245.209 313.275 L 245.188 316.030 248.063 316.088 L 250.938 316.146 250.996 318.906 L 251.054 321.667 253.860 321.667 L 256.667 321.667 256.667 318.854 L 256.667 316.042 259.479 316.042 L 262.292 316.042 262.292 310.417 L 262.292 304.792 265.104 304.792 L 267.917 304.792 267.917 301.979 L 267.917 299.167 270.729 299.167 L 273.542 299.167 273.542 296.360 L 273.542 293.553 276.406 293.495 L 279.271 293.438 279.329 290.573 L 279.387 287.708 282.193 287.708 L 285.000 287.708 285.000 284.896 L 285.000 282.083 293.438 282.083 L 301.875 282.083 301.875 279.271 L 301.875 276.458 313.229 276.458 L 324.583 276.458 324.583 279.271 L 324.583 282.083 333.125 282.083 L 341.667 282.083 341.667 265.104 L 341.667 248.125 338.854 248.125 L 336.042 248.125 336.042 242.503 L 336.042 236.882 330.365 236.826 L 324.688 236.771 324.632 231.094 L 324.577 225.417 318.955 225.417 L 313.333 225.417 313.333 219.792 L 313.333 214.167 310.521 214.167 L 307.708 214.167 307.708 211.360 L 307.708 208.553 304.844 208.495 L 301.979 208.438 301.979 205.625 L 301.979 202.813 305.938 202.759 C 308.115 202.729,310.669 202.761,311.615 202.829 L 313.333 202.954 313.333 205.750 L 313.333 208.545 324.635 208.491 L 335.938 208.438 335.996 205.692 L 336.054 202.947 336.621 202.836 C 336.932 202.774,339.438 202.738,342.188 202.755 L 347.188 202.785 347.245 199.934 L 347.303 197.083 352.919 197.083 L 358.535 197.083 358.590 191.510 L 358.646 185.938 361.458 185.833 L 364.271 185.729 364.324 154.641 L 364.376 123.553 361.511 123.495 L 358.646 123.438 358.596 109.583 C 358.568 101.964,358.545 95.612,358.544 95.469 C 358.542 95.273,357.839 95.208,355.729 95.208 L 352.917 95.208 352.917 89.479 L 352.917 83.750 350.104 83.750 L 347.292 83.750 347.292 80.938 L 347.292 78.125 333.125 78.125 L 318.958 78.125 318.958 80.938 M341.620 86.719 L 341.678 89.583 344.485 89.583 L 347.292 89.583 347.292 95.208 L 347.292 100.833 350.104 100.833 L 352.917 100.833 352.917 115.000 L 352.917 129.167 355.729 129.167 L 358.542 129.167 358.542 154.688 L 358.542 180.208 355.729 180.208 L 352.917 180.208 352.917 185.833 L 352.917 191.458 347.292 191.458 L 341.667 191.458 341.667 194.267 L 341.667 197.077 335.990 197.132 L 330.313 197.188 330.254 199.948 L 330.196 202.708 324.577 202.708 L 318.958 202.708 318.958 199.896 L 318.958 197.083 301.979 197.083 L 285.000 197.083 285.000 194.271 L 285.000 191.458 273.646 191.458 L 262.292 191.458 262.292 188.646 L 262.292 185.833 259.479 185.833 L 256.667 185.833 256.667 183.021 L 256.667 180.208 251.042 180.208 L 245.417 180.208 245.417 177.399 L 245.417 174.590 239.740 174.535 L 234.063 174.479 234.063 171.667 L 234.063 168.854 248.177 168.801 L 262.292 168.747 262.292 165.936 L 262.292 163.125 248.125 163.125 L 233.958 163.125 233.958 157.502 L 233.958 151.880 242.448 151.825 L 250.938 151.771 250.996 149.013 L 251.054 146.255 242.558 146.200 L 234.063 146.146 234.008 137.656 L 233.954 129.167 236.768 129.167 L 239.583 129.167 239.583 126.354 L 239.583 123.542 245.313 123.542 L 251.042 123.542 251.042 120.733 L 251.042 117.923 256.615 117.868 L 262.188 117.813 262.292 115.000 L 262.396 112.188 265.150 112.129 L 267.905 112.071 267.963 109.317 L 268.021 106.563 273.698 106.507 L 279.375 106.452 279.375 103.642 L 279.375 100.833 285.000 100.833 L 290.625 100.833 290.625 98.021 L 290.625 95.208 299.167 95.208 L 307.708 95.208 307.708 92.396 L 307.708 89.583 316.146 89.583 L 324.583 89.583 324.583 86.806 C 324.583 85.278,324.647 83.964,324.725 83.887 C 324.802 83.809,328.623 83.770,333.214 83.800 L 341.563 83.854 341.620 86.719 M75.417 86.768 L 75.417 89.579 83.872 89.633 L 92.328 89.688 92.362 92.396 L 92.396 95.104 100.885 95.159 L 109.375 95.213 109.375 98.023 L 109.375 100.833 114.994 100.833 L 120.613 100.833 120.671 103.698 L 120.729 106.563 123.542 106.606 C 125.089 106.631,127.643 106.654,129.219 106.658 L 132.083 106.667 132.083 109.479 L 132.083 112.292 134.896 112.292 L 137.708 112.292 137.708 115.104 L 137.708 117.917 143.333 117.917 L 148.958 117.917 148.958 120.729 L 148.958 123.542 154.688 123.542 L 160.417 123.542 160.417 126.354 L 160.417 129.167 163.229 129.167 L 166.042 129.167 166.042 137.708 L 166.042 146.250 157.500 146.250 L 148.958 146.250 148.958 149.063 L 148.958 151.875 157.500 151.875 L 166.042 151.875 166.042 157.500 L 166.042 163.125 163.073 163.128 C 161.440 163.129,155.089 163.153,148.958 163.180 L 137.813 163.229 137.755 166.094 L 137.697 168.958 151.875 168.958 L 166.054 168.958 165.996 171.719 L 165.938 174.479 160.313 174.583 L 154.688 174.688 154.629 177.448 L 154.571 180.208 148.952 180.208 L 143.333 180.208 143.333 183.021 L 143.333 185.833 140.521 185.833 L 137.708 185.833 137.708 188.646 L 137.708 191.458 126.354 191.458 L 115.000 191.458 115.000 194.270 L 115.000 197.081 98.073 197.134 L 81.146 197.188 81.088 200.052 L 81.030 202.917 75.411 202.917 L 69.792 202.917 69.792 200.108 L 69.792 197.298 64.115 197.243 L 58.438 197.188 58.379 194.427 L 58.321 191.667 52.702 191.667 L 47.083 191.667 47.083 185.938 L 47.083 180.208 44.271 180.208 L 41.458 180.208 41.458 154.688 L 41.458 129.167 44.271 129.167 L 47.083 129.167 47.083 115.000 L 47.083 100.833 49.896 100.833 L 52.708 100.833 52.708 95.208 L 52.708 89.583 55.521 89.583 L 58.333 89.583 58.333 86.771 L 58.333 83.958 66.875 83.958 L 75.417 83.958 75.417 86.768 M205.625 129.167 L 205.625 134.792 208.438 134.792 C 210.539 134.792,211.255 134.726,211.269 134.531 C 211.293 134.196,211.361 130.530,211.415 126.615 L 211.458 123.542 214.167 123.542 L 216.875 123.542 216.875 126.354 L 216.875 129.167 219.792 129.167 L 222.708 129.167 222.708 131.979 L 222.708 134.792 225.521 134.792 L 228.333 134.792 228.333 151.771 L 228.333 168.750 225.521 168.750 L 222.708 168.750 222.708 171.563 L 222.708 174.375 217.110 174.375 L 211.511 174.375 211.358 168.744 L 211.204 163.113 208.467 163.171 L 205.729 163.229 205.625 171.667 L 205.521 180.104 199.948 180.160 L 194.375 180.215 194.375 168.858 L 194.375 157.500 191.563 157.500 L 188.750 157.500 188.750 166.042 L 188.750 174.583 183.021 174.583 L 177.292 174.583 177.292 171.771 L 177.292 168.958 174.479 168.958 
L 171.667 168.958 171.667 151.983 L 171.667 135.008 172.173 134.881 C 172.452 134.811,173.715 134.786,174.980 
134.825 L 177.281 134.896 177.338 132.083 L 177.396 129.271 180.156 129.213 L 182.917 129.155 182.941 126.817 
C 182.955 125.531,182.950 124.395,182.931 124.292 C 182.791 123.543,182.810 123.542,194.368 123.542 L 205.625 
123.542 205.625 129.167 M251.088 143.281 L 251.146 146.146 253.854 146.146 L 256.563 146.146 256.620 143.281 L 
256.678 140.417 253.854 140.417 L 251.030 140.417 251.088 143.281 M143.333 143.438 L 143.333 146.250 146.146 
146.250 L 148.958 146.250 148.958 143.438 L 148.958 140.625 146.146 140.625 L 143.333 140.625 143.333 143.438 
M132.084 160.365 L 132.084 163.229 134.896 163.229 L 137.709 163.229 137.708 160.365 L 137.708 157.500 134.896 
157.500 L 132.083 157.500 132.084 160.365 M262.292 160.313 L 262.292 163.125 265.104 163.125 L 267.917 163.125 
267.917 160.313 L 267.917 157.500 265.104 157.500 L 262.292 157.500 262.292 160.313 M171.667 208.542 L 171.667 236.875
 168.856 236.875 L 166.045 236.875 165.991 250.990 L 165.938 265.104 163.177 265.162 L 160.417 265.220 160.417 273.646 
 L 160.417 282.072 157.552 282.130 L 154.688 282.188 154.633 290.677 L 154.579 299.167 151.768 299.167 L 148.958 299.167 
 148.958 304.792 L 148.958 310.417 146.146 310.417 L 143.333 310.417 143.333 304.792 L 143.333 299.167 140.521 299.167 L 137.708 299.167 137.708 296.354 L 137.708 293.542 134.896 293.542 L 132.083 293.542 132.083 290.729 L 132.083 287.917 129.271 287.917 L 126.458 287.917 126.458 285.110 L 126.458 282.303 123.594 282.245 L 120.729 282.188 120.671 279.323 L 120.613 276.458 112.182 276.458 L 103.750 276.458 103.750 273.646 L 103.750 270.833 86.771 270.833 L 69.792 270.833 69.792 273.646 L 69.792 276.458 66.875 276.458 L 63.958 276.458 63.958 265.214 L 63.958 253.970 66.823 253.912 L 69.688 253.854 69.743 248.177 L 69.798 242.500 75.420 242.500 L 81.042 242.500 81.042 236.875 L 81.042 231.250 86.663 231.250 L 92.285 231.250 92.340 225.573 L 92.396 219.896 95.156 219.838 C 97.154 219.796,97.918 219.709,97.923 219.525 C 97.927 219.385,97.950 218.146,97.975 216.771 L 98.021 214.271 100.885 214.213 L 103.750 214.155 103.750 208.536 L 103.750 202.917 112.188 202.917 L 120.625 202.917 120.625 200.104 L 120.625 197.292 123.490 197.288 C 125.065 197.286,130.151 197.263,134.792 197.236 L 143.229 197.188 143.287 194.323 L 143.345 191.458 146.152 191.458 L 148.958 191.458 148.958 188.646 L 148.958 185.833 154.688 185.833 L 160.417 185.833 160.417 183.021 L 160.417 180.208 166.042 180.208 L 171.667 180.208 171.667 208.542 M239.629 182.969 L 239.688 185.729 245.313 185.833 L 250.938 185.938 250.996 188.698 L 251.054 191.458 253.860 191.458 L 256.667 191.458 256.667 194.271 L 256.667 197.083 259.531 197.085 C 274.197 197.094,277.725 197.119,278.500 197.223 L 279.395 197.342 279.362 200.077 L 279.329 202.813 287.786 202.867 L 296.243 202.921 296.299 208.492 L 296.354 214.063 299.115 214.121 L 301.875 214.179 301.875 216.979 L 301.875 219.780 304.740 219.838 L 307.604 219.896 307.660 225.573 L 307.715 231.250 313.337 231.250 L 318.958 231.250 318.958 236.875 L 318.958 242.500 324.559 242.500 L 330.159 242.500 330.312 248.119 L 330.466 253.738 333.202 253.796 L 335.938 253.854 335.991 265.156 L 336.045 276.458 333.231 276.458 L 330.417 276.458 330.417 273.646 L 330.417 270.833 313.333 270.833 L 296.250 270.833 296.250 273.646 L 296.250 276.458 287.813 276.458 L 279.375 276.458 279.375 279.271 L 279.375 282.083 276.568 282.083 L 273.762 282.083 273.704 284.913 L 273.646 287.744 270.833 287.778 L 268.021 287.813 267.963 290.677 L 267.905 293.542 265.098 293.542 L 262.292 293.542 262.292 296.354 L 262.292 299.167 259.479 299.167 L 256.667 299.167 256.667 304.792 L 256.667 310.417 253.854 310.417 L 251.042 310.417 251.042 304.792 L 251.042 299.167 248.232 299.167 L 245.421 299.167 245.367 290.677 L 245.313 282.188 242.448 282.130 L 239.583 282.072 239.583 273.646 L 239.583 265.220 236.823 265.162 L 234.063 265.104 234.009 250.990 L 233.955 236.875 231.144 236.875 L 228.333 236.875 228.333 208.542 L 228.333 180.208 233.952 180.208 L 239.571 180.208 239.629 182.969 " stroke="none" fill="#060506" fill-rule="evenodd"></path><path id="path1" d="M324.722 83.889 C 324.646 83.965,324.583 86.543,324.583 89.618 L 324.583 95.208 316.146 95.208 L 307.708 95.208 307.708 98.021 L 307.708 100.833 299.167 100.833 L 290.625 100.833 290.625 103.646 L 290.625 106.458 284.948 106.458 L 279.271 106.458 279.271 109.323 L 279.271 112.188 273.698 112.243 L 268.125 112.298 268.080 109.430 L 268.034 106.563 267.969 109.317 L 267.905 112.071 265.150 112.136 L 262.396 112.201 265.156 112.246 L 267.917 112.292 267.917 115.120 L 267.917 117.948 265.052 117.880 L 262.188 117.813 262.251 120.677 L 262.314 123.542 256.678 123.542 L 251.042 123.542 251.042 126.354 L 251.042 129.167 245.423 129.167 L 239.803 129.167 239.745 126.406 C 239.714 124.888,239.725 128.682,239.772 134.838 L 239.856 146.029 236.959 146.094 C 235.366 146.130,237.886 146.179,242.558 146.204 L 251.054 146.250 250.996 149.010 L 250.938 151.771 245.313 151.875 L 239.688 151.979 239.688 157.552 L 239.688 163.125 250.990 163.125 L 262.292 163.125 262.292 165.938 L 262.292 168.750 248.177 168.799 C 240.414 168.825,236.617 168.874,239.740 168.906 L 245.417 168.965 245.417 171.667 L 245.417 174.368 239.740 174.427 C 235.146 174.475,235.684 174.495,242.563 174.535 L 251.064 174.583 251.001 177.396 L 250.938 180.209 256.615 180.209 L 262.292 180.208 262.292 183.021 L 262.292 185.833 273.646 185.833 L 285.000 185.833 285.000 188.646 L 285.000 191.458 301.979 191.458 L 318.958 191.458 318.958 197.083 L 318.958 202.708 324.577 202.708 L 330.196 202.708 330.254 199.948 L 330.313 197.188 335.990 197.132 L 341.667 197.077 341.667 194.267 L 341.667 191.458 347.292 191.458 L 352.917 191.458 352.917 185.833 L 352.917 180.208 355.729 180.208 L 358.542 180.208 358.542 154.688 L 358.542 129.167 355.729 129.167 L 352.917 129.167 352.917 115.000 L 352.917 100.833 350.104 100.833 L 347.292 100.833 347.292 95.208 L 347.292 89.583 344.427 89.579 C 342.852 89.576,337.789 89.578,333.177 89.583 L 324.792 89.592 324.792 86.778 L 324.792 83.963 333.177 83.906 L 341.563 83.849 333.212 83.800 C 328.619 83.772,324.799 83.813,324.722 83.889 M58.333 95.208 L 58.333 100.833 52.656 100.879 C 49.534 100.904,48.268 100.954,49.844 100.989 L 52.708 101.053 52.708 115.110 L 52.708 129.167 47.031 129.212 C 43.909 129.237,42.643 129.287,44.219 129.322 L 47.083 129.387 47.083 154.798 L 47.083 180.208 49.896 180.208 L 52.708 180.208 52.708 183.021 L 52.708 185.833 55.521 185.833 L 58.333 185.833 58.333 188.642 L 58.333 191.452 52.760 191.522 C 49.695 191.560,52.250 191.585,58.438 191.577 L 69.688 191.563 69.746 194.320 L 69.804 197.077 64.121 197.136 L 58.438 197.194 64.115 197.243 L 69.792 197.292 69.792 200.104 L 69.792 202.917 75.411 202.917 L 81.030 202.917 81.088 200.052 L 81.146 197.188 98.073 197.134 L 115.000 197.081 115.000 194.270 L 115.000 191.458 126.354 191.458 L 137.708 191.458 137.708 188.646 L 137.708 185.833 140.521 185.833 L 143.333 185.833 143.333 183.021 L 143.333 180.208 148.952 180.208 L 154.571 180.208 154.629 177.448 L 154.688 174.688 160.313 174.583 L 165.938 174.479 165.996 171.719 L 166.054 168.958 151.875 168.958 L 137.697 168.958 137.755 166.094 L 137.813 163.229 148.958 163.180 C 155.089 163.153,161.440 163.129,163.073 163.128 L 166.042 163.125 166.042 157.500 L 166.042 151.875 157.500 151.875 L 148.958 151.875 148.958 149.063 L 148.958 146.250 154.688 146.250 L 160.417 146.250 160.417 137.818 L 160.417 129.387 163.281 129.322 C 164.857 129.287,162.279 129.237,157.552 129.212 L 148.958 129.167 148.958 126.354 L 148.958 123.542 143.333 123.542 L 137.708 123.542 137.708 120.729 L 137.708 117.917 134.896 117.917 L 132.083 117.917 132.038 112.240 C 132.013 109.117,131.963 107.853,131.928 109.430 L 131.863 112.298 126.296 112.243 L 120.729 112.188 120.729 109.375 L 120.729 106.563 112.245 106.619 L 103.762 106.676 103.704 103.807 L 103.646 100.938 97.958 100.882 L 92.270 100.827 92.333 97.965 L 92.396 95.104 83.906 95.161 L 75.417 95.217 75.417 92.400 L 75.417 89.583 66.875 89.583 L 58.333 89.583 58.333 95.208 M112.356 100.989 C 113.939 101.025,116.470 101.025,117.981 100.989 C 119.493 100.953,118.198 100.924,115.104 100.925 C 112.010 100.925,110.774 100.954,112.356 100.989 M211.415 126.615 C 211.361 130.530,211.293 134.196,211.269 134.531 C 211.255 134.726,210.539 134.792,208.438 134.792 L 205.625 134.792 205.625 131.979 L 205.625 129.167 194.382 129.167 L 183.139 129.167 183.072 126.823 L 183.006 124.479 182.961 126.817 L 182.917 129.155 180.156 129.219 L 177.396 129.284 180.208 129.330 L 183.021 129.375 183.009 132.136 L 182.996 134.896 180.257 134.896 L 177.519 134.896 177.436 134.375 C 177.391 134.089,177.340 141.706,177.323 151.302 L 177.292 168.750 174.427 168.774 C 172.852 168.787,171.703 168.836,171.875 168.881 C 172.047 168.927,175.914 168.986,180.469 169.013 L 188.750 169.063 188.750 163.281 L 188.750 157.500 191.563 157.500 L 194.375 157.500 194.375 168.858 L 194.375 180.215 199.948 180.160 L 205.521 180.104 205.625 171.667 L 205.729 163.229 208.467 163.171 L 211.204 163.113 211.358 168.744 L 211.511 174.375 217.110 174.375 L 222.708 174.375 222.708 171.563 L 222.708 168.750 225.521 168.750 L 228.333 168.750 228.333 151.771 L 228.333 134.792 225.521 134.792 L 222.708 134.792 222.708 131.979 L 222.708 129.167 219.792 129.167 L 216.875 129.167 216.875 126.354 L 216.875 123.542 214.167 123.542 L 211.458 123.542 211.415 126.615 M177.369 131.667 C 177.369 132.870,177.403 133.362,177.445 132.760 C 177.487 132.159,177.487 131.174,177.445 130.573 C 177.403 129.971,177.369 130.464,177.369 131.667 M173.177 134.946 C 173.836 134.987,174.914 134.987,175.573 134.946 C 176.232 134.904,175.693 134.870,174.375 134.870 C 173.057 134.870,172.518 134.904,173.177 134.946 M256.620 143.281 L 256.563 146.146 253.854 146.146 L
 251.146 146.146 251.088 143.281 L 251.030 140.417 253.854 140.417 L 256.678 140.417 256.620 143.281 M148.958 143.438 L 148.958 146.250 146.146 146.250 L 143.333 146.250 143.333 143.438 L 143.333 140.625 146.146 140.625 L 148.958 140.625 148.958 143.438 M137.708 160.365 L 137.709 163.229 134.896 163.229 L 132.084 163.229 132.084 160.365 L 132.083 157.500 134.896 157.500 L 137.708 157.500 137.708 160.365 M267.917 160.313 L 267.917 163.125 265.104 163.125 L 262.292 163.125 262.292 160.313 L 262.292 157.500 265.104 157.500 L 267.917 157.500 267.917 160.313 M177.373 171.979 C 177.373 173.469,177.406 174.051,177.446 173.273 C 177.487 172.494,177.486 171.276,177.446 170.564 C 177.405 169.853,177.372 170.490,177.373 171.979 M188.617 171.875 C 188.617 172.964,188.652 173.409,188.695 172.865 C 188.738 172.320,188.738 171.430,188.695 170.885 C 188.652 170.341,188.617 170.786,188.617 171.875 M233.958 208.432 L 233.958 236.655 231.094 236.719 C 229.518 236.755,230.831 236.804,234.010 236.829 L 239.792 236.875 239.792 250.938 L 239.792 265.000 236.927 265.045 L 234.063 265.091 236.821 265.156 L 239.579 265.220 239.635 273.704 L 239.692 282.188 239.742 273.698 L 239.792 265.208 242.609 265.208 L 245.426 265.208 245.369 273.698 L 245.313 282.188 248.181 282.124 L 251.050 282.061 251.042 290.562 C 251.037 295.237,251.035 300.352,251.037 301.927 L 251.042 304.792 253.854 304.792 L 256.667 304.792 256.667 299.167 L 256.667 293.542 259.323 293.532 C 260.784 293.526,263.292 293.507,264.896 293.490 L 267.813 293.459 265.046 293.390 L 262.280 293.321 262.338 290.567 L 262.396 287.813 265.208 287.813 L 268.021 287.813 268.021 285.000 L 268.021 282.188 270.792 282.129 L 273.564 282.071 273.501 284.974 C 273.466 286.573,273.518 287.828,273.618 287.766 C 273.718 287.704,273.730 285.171,273.645 282.056 L 273.492 276.458 276.434 276.458 L 279.375 276.458 279.375 273.646 L 279.375 270.833 287.865 270.834 L 296.354 270.834 296.291 268.021 L 296.227 265.208 313.193 265.208 L 330.159 265.208 330.313 270.833 L 330.466 276.458 333.256 276.458 L 336.045 276.458 335.991 265.156 L 335.938 253.854 333.202 253.796 L 330.466 253.738 330.312 248.119 L 330.159 242.500 324.559 242.500 L 318.958 242.500 318.958 236.875 L 318.958 231.250 313.337 231.250 L 307.715 231.250 307.660 225.573 L 307.604 219.896 304.740 219.838 L 301.875 219.780 301.875 216.979 L 301.875 214.179 299.115 214.121 L 296.354 214.063 296.299 208.492 L 296.243 202.921 287.786 202.867 L 279.329 202.813 279.362 200.077 L 279.395 197.342 278.500 197.223 C 277.725 197.119,274.197 197.094,259.531 197.085 L 256.667 197.083 256.667 194.271 L 256.667 191.458 253.860 191.458 L 251.054 191.458 250.996 188.698 L 250.938 185.938 245.313 185.833 L 239.688 185.729 239.629 182.969 L 239.571 180.208 236.765 180.208 L 233.958 180.208 233.958 208.432 M149.004 188.588 L 148.958 191.447 146.094 191.511 L 143.229 191.575 146.094 191.621 L 148.958 191.667 148.958 194.490 L 148.958 197.314 146.094 197.251 L 143.229 197.188 143.292 200.052 L 143.355 202.917 132.100 202.917 L 120.845 202.917 120.781 200.052 C 120.745 198.477,120.696 199.742,120.671 202.865 L 120.625 208.542 115.000 208.542 L 109.375 208.542 109.375 211.354 L 109.375 214.167 106.568 214.167 L 103.762 214.167 103.704 216.997 L 103.646 219.828 100.938 219.862 L 98.229 219.896 98.125 225.521 L 98.021 231.146 95.260 231.204 L 92.500 231.262 92.500 225.637 L 92.500 220.012 95.258 219.954 C 97.720 219.902,98.019 219.856,98.049 219.527 C 98.071 219.281,98.050 219.262,97.985 219.469 C 97.907 219.720,97.358 219.791,95.142 219.838 L 92.396 219.896 92.396 228.385 L 92.396 236.875 89.531 236.875 L 86.667 236.875 86.667 239.688 L 86.667 242.500 83.854 242.500 L 81.042 242.500 81.042 245.313 L 81.042 248.125 78.229 248.125 L 75.417 248.125 75.417 251.053 L 75.417 253.980 72.552 253.917 L 69.688 253.854 69.746 259.531 L 69.805 265.208 86.777 265.208 L 103.750 265.208 103.750 268.021 L 103.750 270.833 112.184 270.833 L 120.618 270.833 120.674 276.510 L 120.729 282.188 126.417 282.243 L 132.106 282.298 132.042 285.108 L 131.979 287.917 134.844 287.917 L 137.708 287.917 137.708 290.729 L 137.708 293.542 140.521 293.542 L 143.333 293.542 143.333 301.979 L 143.333 310.417 146.146 310.417 L 148.958 310.417 148.958 304.792 L 148.958 299.167 151.768 299.167 L 154.579 299.167 154.633 290.677 L 154.688 282.188 157.552 282.130 L 160.417 282.072 160.417 273.646 L 160.417 265.220 163.177 265.162 L 165.938 265.104 165.991 250.990 L 166.045 236.875 168.856 236.875 L 171.667 236.875 171.667 211.354 L 171.667 185.833 166.048 185.833 L 160.428 185.833 160.370 188.698 L 160.313 191.563 154.745 191.618 L 149.178 191.673 149.114 188.701 L 149.050 185.729 149.004 188.588 M97.993 216.979 C 97.993 218.125,98.028 218.567,98.071 217.962 C 98.113 217.356,98.112 216.419,98.070 215.878 C 98.027 215.338,97.992 215.833,97.993 216.979 M64.056 265.208 C 64.056 271.453,64.082 274.008,64.114 270.885 C 64.147 267.763,64.147 262.654,64.114 259.531 C 64.082 256.409,64.056 258.964,64.056 265.208 M69.666 273.646 C 69.666 275.250,69.699 275.879,69.738 275.043 C 69.778 274.207,69.778 272.895,69.738 272.126 C 69.698 271.358,69.665 272.042,69.666 273.646 M126.412 279.323 L 126.470 282.083 123.652 282.083 L 120.833 282.083 120.833 279.265 L 120.833 276.446 123.594 276.504 L 126.354 276.563 126.412 279.323 " stroke="none" fill="#a105f5ff" fill-rule="evenodd"></path>
 
 
 
 
 
 
 
 
 
 
 
 
 
 <path id="path3" d="M59.740 78.281 C 63.664 78.313,70.086 78.313,74.010 78.281 C 77.935 78.249,74.724 78.224,66.875 78.224 C 59.026 78.224,55.815 78.249,59.740 78.281 M46.969 84.014 C 46.913 84.159,46.895 86.760,46.927 89.795 L 46.986 95.313 47.035 89.641 L 47.083 83.970 49.948 83.906 L 52.813 83.841 49.941 83.796 C 47.783 83.761,47.045 83.815,46.969 84.014 M89.525 83.905 L 97.905 83.963 97.963 86.721 L 98.021 89.479 105.729 89.483 L 113.438 89.487 105.787 89.428 L 98.137 89.370 98.079 86.612 L 98.021 83.854 89.583 83.851 L 81.146 83.847 89.525 83.905 M301.920 86.508 L 301.875 89.370 293.385 89.427 L 284.896 89.484 293.392 89.534 C 300.216 89.574,301.909 89.530,301.992 89.312 C 302.050 89.163,302.067 87.827,302.031 86.343 L 301.966 83.646 301.920 86.508 M58.333 86.765 L 58.333 89.571 55.573 89.629 L 52.813 89.688 52.757 95.260 L 52.702 100.833 55.517 100.833 L 58.333 100.833 58.333 95.208 L 58.333 89.583 66.875 89.583 L 75.417 89.583 75.417 92.396 L 75.417 95.208 83.854 95.208 L 92.292 95.208 92.292 98.017 L 92.292 100.827 97.969 100.882 L 103.646 100.938 103.704 103.802 L 103.762 106.667 112.187 106.667 L 120.613 106.667 120.671 109.427 L 120.729 112.188 126.302 112.243 L 131.875 112.298 131.875 109.483 L 131.875 106.667 126.250 106.667 L 120.625 106.667 120.625 103.858 L 120.625 101.048 115.052 100.993 L 109.479 100.938 109.421 98.073 L 109.363 95.208 100.827 95.208 L 92.292 95.208 92.292 92.396 L 92.292 89.583 83.854 89.583 L 75.417 89.583 75.417 86.771 L 75.417 83.958 66.875 83.958 L 58.333 83.958 58.333 86.765 M324.792 86.773 L 324.792 89.588 333.177 89.534 L 341.563 89.479 341.621 86.719 L 341.679 83.958 333.235 83.958 L 324.792 83.958 324.792 86.773 M352.965 89.531 L 352.917 95.208 355.712 95.208 C 357.413 95.208,358.548 95.292,358.613 95.422 C 358.671 95.539,358.695 95.516,358.665 95.370 C 358.626 95.174,357.888 95.089,355.872 95.046 L 353.132 94.988 353.073 89.421 L 353.014 83.854 352.965 89.531 M307.708 92.396 L 307.708 95.208 299.167 95.208 L 290.625 95.208 290.625 98.021 L 290.625 100.833 285.000 100.833 L 279.375 100.833 279.375 103.646 L 279.375 106.458 285.000 106.458 L 290.625 106.458 290.625 103.646 L 290.625 100.833 299.167 100.833 L 307.708 100.833 307.708 98.021 L 307.708 95.208 316.146 95.208 L 324.583 95.208 324.583 92.396 L 324.583 89.583 316.146 89.583 L 307.708 89.583 307.708 92.396 M276.510 95.156 C 278.086 95.191,280.664 95.191,282.240 95.156 C 283.815 95.120,282.526 95.091,279.375 95.091 C 276.224 95.091,274.935 95.120,276.510 95.156 M358.644 109.583 L 358.646 123.438 361.354 123.447 L 364.063 123.456 361.408 123.388 L 358.753 123.321 358.697 109.525 L 358.641 95.729 358.644 109.583 M41.348 109.792 C 41.348 117.297,41.374 120.367,41.406 116.615 C 41.438 112.862,41.438 106.721,41.406 102.969 C 41.374 99.216,41.348 102.286,41.348 109.792 M47.083 115.104 L 47.083 129.167 49.896 129.167 L 52.708 129.167 52.708 115.104 L 52.708 101.042 49.896 101.042 L 47.083 101.042 47.083 115.104 M268.125 109.375 L 268.125 112.298 273.698 112.243 L 279.271 112.188 279.271 109.375 L 279.271 106.563 273.698 106.507 L 268.125 106.452 268.125 109.375 M146.211 112.239 C 147.850 112.274,150.475 112.274,152.044 112.239 C 153.612 112.204,152.271 112.175,149.063 112.175 C 145.854 112.175,144.571 112.204,146.211 112.239 M132.083 115.104 L 132.083 117.917 134.896 117.917 L 137.708 117.917 137.708 120.729 L 137.708 123.542 143.333 123.542 L 148.958 123.542 148.958 126.354 L 148.958 129.167 154.694 129.167 L 160.429 129.167 160.371 126.406 L 160.313 123.646 154.635 123.590 L 148.958 123.535 148.958 120.726 L 148.958 117.917 143.333 117.917 L 137.708 117.917 137.708 115.104 L 137.708 112.292 134.896 112.292 L 132.083 112.292 132.083 115.104 M262.338 115.052 L 262.396 117.813 265.156 117.871 L 267.917 117.929 267.917 115.110 L 267.917 112.292 265.098 112.292 L 262.280 112.292 262.338 115.052 M157.356 117.864 C 158.823 117.900,161.167 117.900,162.564 117.864 C 163.961 117.828,162.760 117.799,159.896 117.799 C 157.031 117.799,155.888 117.828,157.356 117.864 M183.073 117.864 C 186.195 117.897,191.305 117.897,194.427 117.864 C 197.549 117.832,194.995 117.806,188.750 117.806 C 182.505 117.806,179.951 117.832,183.073 117.864 M251.042 120.729 L 251.042 123.542 245.417 123.542 L 239.792 123.542 239.792 126.348 L 239.792 129.155 236.927 129.213 L 234.063 129.271 234.008 137.656 L 233.954 146.042 236.873 146.042 L 239.792 146.042 239.792 137.604 L 239.792 129.167 245.417 129.167 L 251.042 129.167 251.042 126.354 L 251.042 123.542 256.667 123.542 L 262.292 123.542 262.292 120.729 L 262.292 117.917 256.667 117.917 L 251.042 117.917 251.042 120.729 M225.469 123.489 C 227.044 123.524,229.622 123.524,231.198 123.489 C 232.773 123.454,231.484 123.425,228.333 123.425 C 225.182 123.425,223.893 123.454,225.469 123.489 M183.125 126.354 L 183.125 129.167 194.375 129.167 L 205.625 129.167 205.625 126.354 L 205.625 123.542 194.375 123.542 L 183.125 123.542 183.125 126.354 M41.458 154.792 L 41.458 180.208 44.271 180.208 L 47.083 180.208 47.083 185.833 L 47.083 191.458 52.708 191.458 L 58.333 191.458 58.333 194.271 L 58.333 197.083 64.069 197.083 L 69.804 197.083 69.746 194.323 L 69.688 191.563 64.010 191.507 L 58.333 191.452 58.333 188.642 L 58.333 185.833 55.521 185.833 L 52.708 185.833 52.708 183.021 L 52.708 180.208 49.896 180.208 L 47.083 180.208 47.083 154.792 L 47.083 129.375 44.271 129.375 L 41.458 129.375 41.458 154.792 M160.417 137.819 L 160.417 146.262 163.177 146.204 L 165.938 146.146 165.992 137.760 L 166.046 129.375 163.232 129.375 L 160.417 129.375 160.417 137.819 M177.441 131.719 C 177.465 133.008,177.489 134.250,177.493 134.479 C 177.501 134.874,177.642 134.896,180.249 134.896 L 182.996 134.896 183.009 132.136 L 183.021 129.375 180.208 129.375 L 177.396 129.375 177.441 131.719 M171.667 151.869 L 171.667 168.738 174.531 168.796 C 176.636 168.839,177.403 168.923,177.422 169.115 C 177.436 169.258,177.460 170.547,177.474 171.979 L 177.500 174.583 183.021 174.583 C 187.297 174.583,188.542 174.525,188.544 174.323 C 188.546 174.180,188.567 172.938,188.592 171.563 L 188.636 169.063 183.016 168.958 L 177.396 168.854 177.343 151.927 L 177.289 135.000 174.478 135.000 L 171.667 135.000 171.667 151.869 M233.958 157.500 L 233.958 163.137 236.823 163.079 L 239.688 163.021 239.688 157.500 L 239.688 151.979 236.823 151.921 L 233.958 151.863 233.958 157.500 M233.958 171.667 L 233.958 174.375 239.688 174.375 L 245.417 174.375 245.417 171.667 L 245.417 168.958 239.688 168.958 L 233.958 168.958 233.958 171.667 M245.417 177.402 L 245.417 180.220 248.177 180.162 L 250.938 180.104 250.996 177.344 L 251.054 174.583 248.235 174.583 L 245.417 174.583 245.417 177.402 M160.417 183.021 L 160.417 185.833 154.792 185.833 L 149.167 185.833 149.167 188.753 L 149.167 191.673 154.740 191.618 L 160.313 191.563 160.370 188.698 L 160.428 185.833 166.048 185.833 L 171.667 185.833 171.667 183.021 L 171.667 180.208 166.042 180.208 L 160.417 180.208 160.417 183.021 M177.393 211.354 C 177.393 228.542,177.418 235.542,177.448 226.911 C 177.478 218.279,177.478 204.217,177.448 195.661 C 177.418 187.105,177.393 194.167,177.393 211.354 M222.601 211.354 C 222.601 228.542,222.626 235.542,222.656 226.911 C 222.686 218.279,222.686 204.217,222.656 195.661 C 222.626 187.105,222.601 194.167,222.601 211.354 M228.333 208.438 L 228.333 236.667 231.146 236.667 L 233.958 236.667 233.958 208.438 L 233.958 180.208 231.146 180.208 L 228.333 180.208 228.333 208.438 M256.667 183.021 L 256.667 185.833 259.479 185.833 L 262.292 185.833 262.292 188.646 L 262.292 191.458 273.646 191.458 L 285.000 191.458 285.000 194.271 L 285.000 197.083 301.979 197.083 L 318.958 197.083 318.958 194.271 L 318.958 191.458 301.979 191.458 L 285.000 191.458 285.000 188.646 L 285.000 185.833 273.646 185.833 L 262.292 185.833 262.292 183.021 L 262.292 180.208 259.479 180.208 L 256.667 180.208 256.667 183.021 M37.448 185.986 C 37.935 186.030,38.732 186.030,39.219 185.986 C 39.706 185.942,39.307 185.906,38.333 185.906 C 37.359 185.906,36.961 185.942,37.448 185.986 M184.427 185.988 C 185.201 186.028,186.466 186.028,187.240 185.988 C 188.013 185.948,187.380 185.915,185.833 185.915 C 184.286 185.915,183.654 185.948,184.427 185.988 M190.052 185.988 C 190.826 186.028,192.091 186.028,192.865 185.988 C 193.638 185.948,193.005 185.915,191.458 185.915 C 189.911 185.915,189.279 185.948,190.052 185.988 M195.885 185.988 C 196.659 186.028,197.924 186.028,198.698 185.988 C 199.471 185.948,198.839 185.915,197.292 185.915 C 195.745 185.915,195.112 185.948,195.885 185.988 M41.341 191.667 C 41.341 194.818,41.370 196.107,41.406 194.531 C 41.441 192.956,41.441 190.378,41.406 188.802 C 41.370 187.227,41.341 188.516,41.341 191.667 M358.590 191.507 L 358.542 197.077 352.865 197.136 L 347.188 197.194 352.871 197.243 C 357.301 197.281,358.577 197.233,358.656 197.028 C 358.712 196.883,358.731 194.328,358.698 191.351 L 358.638 185.938 358.590 191.507 M143.333 194.479 L 143.333 197.292 132.083 197.292 L 120.833 197.292 120.833 200.104 L 120.833 202.917 132.083 202.917 L 143.333 202.917 143.333 200.104 L 143.333 197.292 146.146 197.292 L 148.958 197.292 148.958 194.479 L 148.958 191.667 146.146 191.667 L 143.333 191.667 143.333 194.479 M301.966 202.980 C 301.908 203.130,301.888 204.419,301.920 205.845 L 301.979 208.438 304.844 208.447 L 307.709 208.456 304.885 208.389 L 302.061 208.321 302.124 205.515 C 302.187 202.737,302.169 202.451,301.966 202.980 M304.115 202.861 C 304.602 202.905,305.398 202.905,305.885 202.861 C 306.372 202.817,305.974 202.781,305.000 202.781 C 304.026 202.781,303.628 202.817,304.115 202.861 M309.115 202.861 C 309.602 202.905,310.398 202.905,310.885 202.861 C 311.372 202.817,310.974 202.781,310.000 202.781 C 309.026 202.781,308.628 202.817,309.115 202.861 M337.552 202.861 C 338.096 202.904,338.987 202.904,339.531 202.861 C 340.076 202.819,339.630 202.783,338.542 202.783 C 337.453 202.783,337.008 202.819,337.552 202.861 M344.115 202.861 C 344.602 202.905,345.398 202.905,345.885 202.861 C 346.372 202.817,345.974 202.781,345.000 202.781 C 344.026 202.781,343.628 202.817,344.115 202.861 M97.998 205.625 C 97.998 207.172,98.031 207.805,98.071 207.031 C 98.111 206.258,98.111 204.992,98.071 204.219 C 98.031 203.445,97.998 204.078,97.998 205.625 M103.750 208.542 L 103.750 214.167 100.943 214.167 L 98.137 214.167 98.079 217.031 L 98.021 219.896 95.260 219.954 L 92.500 220.012 92.500 225.631 L 92.500 231.250 86.771 231.250 L 81.042 231.250 81.042 236.875 L 81.042 242.500 75.417 242.500 L 69.792 242.500 69.792 248.229 L 69.792 253.958 66.979 253.958 L 64.167 253.958 64.167 265.208 L 64.167 276.458 66.875 276.458 L 69.583 276.458 69.583 273.646 L 69.583 270.833 86.667 270.833 L 103.750 270.833 103.750 273.646 L 103.750 276.458 112.188 276.458 L 120.625 276.458 120.625 273.646 L 120.625 270.833 112.188 270.833 L 103.750 270.833 103.750 268.021 L 103.750 265.208 86.771 265.208 L 69.792 265.208 69.792 259.583 L 69.792 253.958 72.604 253.958 L 75.417 253.958 75.417 251.042 L 75.417 248.125 78.229 248.125 L 81.042 248.125 81.042 245.313 L 81.042 242.500 83.854 242.500 L 86.667 242.500 86.667 239.688 L 86.667 236.875 89.531 236.875 L 92.396 236.875 92.396 234.115 L 92.396 231.354 95.208 231.250 L 98.021 231.146 98.125 225.521 L 98.229 219.896 100.938 219.862 L 103.646 219.828 103.704 216.997 L 103.762 214.167 106.568 214.167 L 109.375 214.167 109.375 211.354 L 109.375 208.542 115.000 208.542 L 120.625 208.542 120.625 205.729 L 120.625 202.917 112.188 202.917 L 103.750 202.917 103.750 208.542 M309.539 214.113 C 310.260 214.154,311.385 214.153,312.039 214.112 C 312.694 214.071,312.104 214.037,310.729 214.038 C 309.354 214.038,308.819 214.072,309.539 214.113 M324.682 231.094 L 324.688 236.771 330.365 236.776 L 336.042 236.781 330.420 236.721 L 324.798 236.660 324.738 231.038 L 324.677 225.416 324.682 231.094 M75.300 231.250 C 75.300 234.401,75.329 235.690,75.364 234.115 C 75.399 232.539,75.399 229.961,75.364 228.385 C 75.329 226.810,75.300 228.099,75.300 231.250 M233.958 250.938 L 233.958 265.000 236.875 265.000 L 239.792 265.000 239.792 250.938 L 239.792 236.875 236.875 236.875 L 233.958 236.875 233.958 250.938 M239.792 273.646 L 239.792 282.083 242.604 282.083 L 245.417 282.083 245.417 290.631 L 245.417 299.179 248.177 299.121 L 250.938 299.063 250.992 290.573 L 251.046 282.083 248.232 282.083 L 245.417 282.083 245.417 273.646 L 245.417 265.208 242.604 265.208 L 239.792 265.208 239.792 273.646 M296.296 267.969 L 296.354 270.729 313.281 270.782 L 330.208 270.836 330.208 268.022 L 330.208 265.208 313.223 265.208 L 296.238 265.208 296.296 267.969 M279.375 273.646 L 279.375 276.458 276.458 276.458 L 273.542 276.458 273.542 279.265 L 273.542 282.071 270.781 282.129 L 268.021 282.188 267.963 284.942 L 267.905 287.696 265.150 287.754 L 262.396 287.813 262.338 290.573 L 262.280 293.333 265.098 293.333 L 267.917 293.333 267.917 290.521 L 267.917 287.708 270.729 287.708 L 273.542 287.708 273.542 284.896 L 273.542 282.083 276.332 282.083 C 279.635 282.083,279.375 282.352,279.375 278.941 L 279.375 276.458 287.813 276.458 L 296.250 276.458 296.250 273.646 L 296.250 270.833 287.813 270.833 L 279.375 270.833 279.375 273.646 M86.609 276.614 L 97.905 276.670 97.972 279.481 L 98.039 282.292 98.030 279.427 L 98.021 276.563 86.667 276.560 L 75.313 276.557 86.609 276.614 M120.833 279.265 L 120.833 282.083 123.652 282.083 L 126.470 282.083 126.412 279.323 L 126.354 276.563 123.594 276.504 L 120.833 276.446 120.833 279.265 M301.920 279.216 L 301.875 282.079 293.385 282.135 L 284.896 282.192 293.392 282.242 C 300.216 282.282,301.909 282.238,301.992 282.020 C 302.050 281.871,302.067 280.535,302.031 279.051 L 301.966 276.354 301.920 279.216 M328.997 282.239 C 331.252 282.273,335.002 282.273,337.330 282.239 C 339.658 282.206,337.813 282.178,333.229 282.178 C 328.646 282.178,326.741 282.206,328.997 282.239 M126.458 285.110 L 126.458 287.929 129.219 287.871 L 131.979 287.813 132.037 285.052 L 132.095 282.292 129.277 282.292 L 126.458 282.292 126.458 285.110 M235.251 287.863 C 236.020 287.903,237.332 287.903,238.168 287.863 C 239.004 287.824,238.375 287.791,236.771 287.791 C 235.167 287.790,234.483 287.823,235.251 287.863 M280.668 287.863 C 281.436 287.903,282.749 287.903,283.585 287.863 C 284.420 287.824,283.792 287.791,282.188 287.791 C 280.583 287.790,279.900 287.823,280.668 287.863 M132.083 290.729 L 132.083 293.542 134.896 293.542 L 137.708 293.542 137.708 296.354 L 137.708 299.167 140.521 299.167 L 143.333 299.167 143.333 296.354 L 143.333 293.542 140.521 293.542 L 137.708 293.542 137.708 290.729 L 137.708 287.917 134.896 287.917 L 132.083 287.917 132.083 290.729 M259.323 293.496 L 256.667 293.554 256.667 296.360 L 256.667 299.167 259.479 299.167 L 262.292 299.167 262.292 296.366 C 262.292 294.826,262.221 293.537,262.135 293.502 C 262.049 293.466,260.784 293.464,259.323 293.496 M273.624 296.354 C 273.624 297.958,273.657 298.587,273.697 297.751 C 273.736 296.916,273.736 295.603,273.696 294.835 C 273.656 294.066,273.624 294.750,273.624 296.354 M126.332 296.458 C 126.332 298.005,126.364 298.638,126.404 297.865 C 126.445 297.091,126.445 295.826,126.404 295.052 C 126.364 294.279,126.332 294.911,126.332 296.458 M131.970 302.031 L 131.979 304.896 134.844 304.905 L 137.709 304.914 134.902 304.847 L 132.095 304.780 132.028 301.973 L 131.961 299.166 131.970 302.031 M267.999 301.979 C 267.999 303.583,268.032 304.212,268.072 303.376 C 268.111 302.541,268.111 301.228,268.071 300.460 C 268.031 299.691,267.999 300.375,267.999 301.979 M156.094 304.946 C 156.867 304.986,158.133 304.986,158.906 304.946 C 159.680 304.906,159.047 304.873,157.500 304.873 C 155.953 304.873,155.320 304.906,156.094 304.946 M251.042 307.604 L 251.042 310.417 253.854 310.417 L 256.667 310.417 256.667 307.604 L 256.667 304.792 253.854 304.792 L 251.042 304.792 251.042 307.604 M259.479 316.042 L 256.563 316.164 259.415 316.207 C 261.140 316.233,262.318 316.168,262.396 316.042 C 262.467 315.927,262.496 315.853,262.460 315.876 C 262.425 315.900,261.083 315.974,259.479 316.042 M248.119 316.194 L 250.821 316.262 250.879 319.016 L 250.938 321.771 253.802 321.780 L 256.667 321.789 253.860 321.722 L 251.054 321.655 250.996 318.900 L 250.938 316.146 248.177 316.136 L 245.416 316.127 248.119 316.194 M149.041 319.063 C 149.041 320.667,149.074 321.295,149.113 320.460 C 149.153 319.624,149.153 318.311,149.113 317.543 C 149.073 316.775,149.040 317.458,149.041 319.063 " stroke="none" fill="#7c8dfbff" fill-rule="evenodd"></path></g></svg>