
<svg xmlns="http://www.w3.org/2000/svg" width="800" height="800" viewBox="0 0 800 800" version="1.1"><path d="M 256 296 L 256 304 248 304 L 240 304 240 312 L 240 320 232 320 L 224 320 224 328 L 224 336 216 336 L 208 336 208 344 L 208 352 216 352 L 224 352 224 360 L 224 368 232 368 L 240 368 240 376 L 240 384 248 384 L 256 384 256 392 L 256 400 264 400 L 272 400 272 408 L 272 416 280 416 L 288 416 288 424 L 288 432 296 432 L 304 432 304 440 L 304 448 312 448 L 320 448 320 456 L 320 464 328 464 L 336 464 336 472 L 336 480 344 480 L 352 480 352 488 L 352 496 360 496 L 368 496 368 504 L 368 512 376 512 L 384 512 384 528 L 384 544 400 544 L 416 544 416 528 L 416 512 424 512 L 432 512 432 504 L 432 496 440 496 L 448 496 448 488 L 448 480 456 480 L 464 480 464 472 L 464 464 472 464 L 480 464 480 456 L 480 448 488 448 L 496 448 496 440 L 496 432 504 432 L 512 432 512 424 L 512 416 520 416 L 528 416 528 408 L 528 400 536 400 L 544 400 544 392 L 544 384 552 384 L 560 384 560 376 L 560 368 568 368 L 576 368 576 360 L 576 352 584 352 L 592 352 592 344 L 592 336 584 336 L 576 336 576 328 L 576 320 568 320 L 560 320 560 312 L 560 304 552 304 L 544 304 544 296 L 544 288 536 288 L 528 288 528 296 L 528 304 512 304 L 496 304 496 320 L 496 336 488 336 L 480 336 480 344 L 480 352 472 352 L 464 352 464 360 L 464 368 456 368 L 448 368 448 376 L 448 384 400 384 L 352 384 352 376 L 352 368 344 368 L 336 368 336 360 L 336 352 328 352 L 320 352 320 344 L 320 336 312 336 L 304 336 304 328 L 304 320 296 320 L 288 320 288 312 L 288 304 280 304 L 272 304 272 296 L 272 288 264 288 L 256 288 256 296 M 352 408 L 352 416 344 416 L 336 416 336 424 L 336 432 328 432 L 320 432 320 440 L 320 448 328 448 L 336 448 336 456 L 336 464 344 464 L 352 464 352 472 L 352 480 360 480 L 368 480 368 488 L 368 496 376 496 L 384 496 384 504 L 384 512 400 512 L 416 512 416 504 L 416 496 424 496 L 432 496 432 488 L 432 480 440 480 L 448 480 448 472 L 448 464 456 464 L 464 464 464 456 L 464 448 472 448 L 480 448 480 440 L 480 432 472 432 L 464 432 464 424 L 464 416 456 416 L 448 416 448 408 L 448 400 440 400 L 432 400 432 408 L 432 416 424 416 L 416 416 416 424 L 416 432 400 432 L 384 432 384 424 L 384 416 376 416 L 368 416 368 408 L 368 400 360 400 L 352 400 352 408" stroke="none" fill="#54041c" fill-rule="evenodd"/><path d="M 352 408 L 352 416 344 416 L 336 416 336 424 L 336 432 328 432 L 320 432 320 440 L 320 448 328 448 L 336 448 336 456 L 336 464 344 464 L 352 464 352 472 L 352 480 360 480 L 368 480 368 488 L 368 496 376 496 L 384 496 384 504 L 384 512 400 512 L 416 512 416 504 L 416 496 424 496 L 432 496 432 488 L 432 480 440 480 L 448 480 448 472 L 448 464 456 464 L 464 464 464 456 L 464 448 472 448 L 480 448 480 440 L 480 432 472 432 L 464 432 464 424 L 464 416 456 416 L 448 416 448 408 L 448 400 440 400 L 432 400 432 408 L 432 416 424 416 L 416 416 416 424 L 416 432 400 432 L 384 432 384 424 L 384 416 376 416 L 368 416 368 408 L 368 400 360 400 L 352 400 352 408" stroke="none" fill="#742cd4" fill-rule="evenodd"/></svg>